<mxfile host="app.diagrams.net" modified="2023-08-08T09:38:37.823Z" agent="Mozilla/5.0 (Windows NT 10.0; Win64; x64) AppleWebKit/537.36 (KHTML, like Gecko) Chrome/115.0.0.0 Safari/537.36" etag="ErMvaujjQRyL3yQTuppU" version="21.6.6" type="github">
  <diagram name="Page-1" id="97916047-d0de-89f5-080d-49f4d83e522f">
    <mxGraphModel dx="2390" dy="1263" grid="1" gridSize="10" guides="1" tooltips="1" connect="1" arrows="1" fold="1" page="1" pageScale="1.5" pageWidth="1169" pageHeight="827" background="none" math="0" shadow="0">
      <root>
        <mxCell id="0" />
        <mxCell id="1" parent="0" />
        <mxCell id="2" value="Diagramy" style="rounded=1;fillColor=#10739E;strokeColor=none;shadow=1;gradientColor=none;fontStyle=1;fontColor=#FFFFFF;fontSize=14;" parent="1" vertex="1">
          <mxGeometry x="777" y="190" width="200" height="60" as="geometry" />
        </mxCell>
        <mxCell id="3" value="Diagramy struktury" style="rounded=1;fillColor=#10739E;strokeColor=none;shadow=1;gradientColor=none;fontStyle=1;fontColor=#FFFFFF;fontSize=14;" parent="1" vertex="1">
          <mxGeometry x="382" y="310" width="200" height="60" as="geometry" />
        </mxCell>
        <mxCell id="5" value="Profile" style="rounded=1;fillColor=#10739E;strokeColor=none;shadow=1;gradientColor=none;fontStyle=1;fontColor=#FFFFFF;fontSize=14;" parent="1" vertex="1">
          <mxGeometry x="102" y="430" width="160" height="60" as="geometry" />
        </mxCell>
        <mxCell id="6" value="Diagramy chování" style="rounded=1;fillColor=#10739E;strokeColor=none;shadow=1;gradientColor=none;fontStyle=1;fontColor=#FFFFFF;fontSize=14;" parent="1" vertex="1">
          <mxGeometry x="1172" y="310" width="200" height="60" as="geometry" />
        </mxCell>
        <mxCell id="8" value="Class" style="rounded=1;fillColor=#10739E;strokeColor=none;shadow=1;gradientColor=none;fontStyle=1;fontColor=#FFFFFF;fontSize=14;" parent="1" vertex="1">
          <mxGeometry x="302" y="430" width="160" height="60" as="geometry" />
        </mxCell>
        <mxCell id="29" value="" style="edgeStyle=elbowEdgeStyle;elbow=vertical;strokeWidth=4;endArrow=none;endFill=0;fontStyle=1;strokeColor=#23445D;startArrow=block;startFill=1;rounded=0;" parent="1" source="2" target="3" edge="1">
          <mxGeometry x="22" y="165.5" width="100" height="100" as="geometry">
            <mxPoint x="-6" y="365.5" as="sourcePoint" />
            <mxPoint x="94" y="265.5" as="targetPoint" />
          </mxGeometry>
        </mxCell>
        <mxCell id="Kt87ofxyHbjbI0RbkyQz-56" value="" style="edgeStyle=elbowEdgeStyle;elbow=vertical;strokeWidth=4;endArrow=none;endFill=0;fontStyle=1;strokeColor=#23445D;startArrow=block;startFill=1;entryX=0.5;entryY=0;entryDx=0;entryDy=0;rounded=0;" edge="1" parent="1" source="2" target="6">
          <mxGeometry x="22" y="165.5" width="100" height="100" as="geometry">
            <mxPoint x="752" y="370" as="sourcePoint" />
            <mxPoint x="582" y="456" as="targetPoint" />
          </mxGeometry>
        </mxCell>
        <mxCell id="Kt87ofxyHbjbI0RbkyQz-59" value="Composite&#xa;Structure" style="rounded=1;fillColor=#10739E;strokeColor=none;shadow=1;gradientColor=none;fontStyle=1;fontColor=#FFFFFF;fontSize=14;" vertex="1" parent="1">
          <mxGeometry x="502" y="430" width="160" height="61" as="geometry" />
        </mxCell>
        <mxCell id="Kt87ofxyHbjbI0RbkyQz-60" value="Component" style="rounded=1;fillColor=#10739E;strokeColor=none;shadow=1;gradientColor=none;fontStyle=1;fontColor=#FFFFFF;fontSize=14;" vertex="1" parent="1">
          <mxGeometry x="702" y="430" width="160" height="60" as="geometry" />
        </mxCell>
        <mxCell id="Kt87ofxyHbjbI0RbkyQz-61" value="Deployment" style="rounded=1;fillColor=#10739E;strokeColor=none;shadow=1;gradientColor=none;fontStyle=1;fontColor=#FFFFFF;fontSize=14;" vertex="1" parent="1">
          <mxGeometry x="202" y="520" width="160" height="60" as="geometry" />
        </mxCell>
        <mxCell id="Kt87ofxyHbjbI0RbkyQz-62" value="Object" style="rounded=1;fillColor=#10739E;strokeColor=none;shadow=1;gradientColor=none;fontStyle=1;fontColor=#FFFFFF;fontSize=14;" vertex="1" parent="1">
          <mxGeometry x="402" y="520" width="160" height="60" as="geometry" />
        </mxCell>
        <mxCell id="Kt87ofxyHbjbI0RbkyQz-63" value="Package" style="rounded=1;fillColor=#10739E;strokeColor=none;shadow=1;gradientColor=none;fontStyle=1;fontColor=#FFFFFF;fontSize=14;" vertex="1" parent="1">
          <mxGeometry x="602" y="520" width="160" height="60" as="geometry" />
        </mxCell>
        <mxCell id="Kt87ofxyHbjbI0RbkyQz-64" value="" style="edgeStyle=elbowEdgeStyle;elbow=vertical;strokeWidth=4;endArrow=none;endFill=0;fontStyle=1;strokeColor=#23445D;startArrow=block;startFill=1;entryX=0.5;entryY=0;entryDx=0;entryDy=0;exitX=0.5;exitY=1;exitDx=0;exitDy=0;rounded=0;" edge="1" parent="1" source="3" target="5">
          <mxGeometry x="22" y="165.5" width="100" height="100" as="geometry">
            <mxPoint x="859" y="260" as="sourcePoint" />
            <mxPoint x="492" y="320" as="targetPoint" />
            <Array as="points">
              <mxPoint x="292" y="400" />
            </Array>
          </mxGeometry>
        </mxCell>
        <mxCell id="Kt87ofxyHbjbI0RbkyQz-65" value="" style="edgeStyle=elbowEdgeStyle;elbow=vertical;strokeWidth=4;endArrow=none;endFill=0;fontStyle=1;strokeColor=#23445D;startArrow=block;startFill=1;exitX=0.5;exitY=1;exitDx=0;exitDy=0;rounded=0;entryX=0.5;entryY=0;entryDx=0;entryDy=0;" edge="1" parent="1" source="3" target="8">
          <mxGeometry x="22" y="165.5" width="100" height="100" as="geometry">
            <mxPoint x="492" y="380" as="sourcePoint" />
            <mxPoint x="112" y="430" as="targetPoint" />
            <Array as="points">
              <mxPoint x="412" y="400" />
            </Array>
          </mxGeometry>
        </mxCell>
        <mxCell id="Kt87ofxyHbjbI0RbkyQz-67" value="" style="edgeStyle=elbowEdgeStyle;elbow=vertical;strokeWidth=4;endArrow=none;endFill=0;fontStyle=1;strokeColor=#23445D;startArrow=block;startFill=1;exitX=0.5;exitY=1;exitDx=0;exitDy=0;entryX=0.5;entryY=0;entryDx=0;entryDy=0;rounded=0;" edge="1" parent="1" source="3" target="Kt87ofxyHbjbI0RbkyQz-62">
          <mxGeometry x="22" y="165.5" width="100" height="100" as="geometry">
            <mxPoint x="502" y="390" as="sourcePoint" />
            <mxPoint x="372" y="440" as="targetPoint" />
          </mxGeometry>
        </mxCell>
        <mxCell id="Kt87ofxyHbjbI0RbkyQz-68" value="" style="edgeStyle=elbowEdgeStyle;elbow=vertical;strokeWidth=4;endArrow=none;endFill=0;fontStyle=1;strokeColor=#23445D;startArrow=block;startFill=1;exitX=0.5;exitY=1;exitDx=0;exitDy=0;entryX=0.5;entryY=0;entryDx=0;entryDy=0;rounded=0;" edge="1" parent="1" source="3" target="Kt87ofxyHbjbI0RbkyQz-59">
          <mxGeometry x="22" y="165.5" width="100" height="100" as="geometry">
            <mxPoint x="512" y="400" as="sourcePoint" />
            <mxPoint x="382" y="450" as="targetPoint" />
            <Array as="points">
              <mxPoint x="542" y="400" />
            </Array>
          </mxGeometry>
        </mxCell>
        <mxCell id="Kt87ofxyHbjbI0RbkyQz-69" value="" style="edgeStyle=elbowEdgeStyle;elbow=vertical;strokeWidth=4;endArrow=none;endFill=0;fontStyle=1;strokeColor=#23445D;startArrow=block;startFill=1;exitX=0.5;exitY=1;exitDx=0;exitDy=0;entryX=0.5;entryY=0;entryDx=0;entryDy=0;spacing=2;fontSize=11;startSize=0;endSize=0;jumpSize=0;rounded=0;" edge="1" parent="1" source="3" target="Kt87ofxyHbjbI0RbkyQz-63">
          <mxGeometry x="22" y="165.5" width="100" height="100" as="geometry">
            <mxPoint x="522" y="410" as="sourcePoint" />
            <mxPoint x="392" y="460" as="targetPoint" />
            <Array as="points">
              <mxPoint x="602" y="400" />
            </Array>
          </mxGeometry>
        </mxCell>
        <mxCell id="Kt87ofxyHbjbI0RbkyQz-70" value="" style="edgeStyle=elbowEdgeStyle;elbow=vertical;strokeWidth=4;endArrow=none;endFill=0;fontStyle=1;strokeColor=#23445D;startArrow=block;startFill=1;exitX=0.5;exitY=1;exitDx=0;exitDy=0;entryX=0.5;entryY=0;entryDx=0;entryDy=0;rounded=0;jumpStyle=none;jumpSize=0;" edge="1" parent="1" source="3" target="Kt87ofxyHbjbI0RbkyQz-60">
          <mxGeometry x="22" y="165.5" width="100" height="100" as="geometry">
            <mxPoint x="532" y="420" as="sourcePoint" />
            <mxPoint x="402" y="470" as="targetPoint" />
            <Array as="points">
              <mxPoint x="672" y="400" />
            </Array>
          </mxGeometry>
        </mxCell>
        <mxCell id="Kt87ofxyHbjbI0RbkyQz-71" value="" style="edgeStyle=elbowEdgeStyle;elbow=vertical;strokeWidth=4;endArrow=none;endFill=0;fontStyle=1;strokeColor=#23445D;startArrow=block;startFill=1;entryX=0.5;entryY=0;entryDx=0;entryDy=0;exitX=0.5;exitY=1;exitDx=0;exitDy=0;rounded=0;jumpSize=0;" edge="1" parent="1" source="3" target="Kt87ofxyHbjbI0RbkyQz-61">
          <mxGeometry x="22" y="165.5" width="100" height="100" as="geometry">
            <mxPoint x="492" y="380" as="sourcePoint" />
            <mxPoint x="112" y="430" as="targetPoint" />
            <Array as="points">
              <mxPoint x="352" y="400" />
            </Array>
          </mxGeometry>
        </mxCell>
        <mxCell id="Kt87ofxyHbjbI0RbkyQz-72" value="Activity" style="rounded=1;fillColor=#10739E;strokeColor=none;shadow=1;gradientColor=none;fontStyle=1;fontColor=#FFFFFF;fontSize=14;" vertex="1" parent="1">
          <mxGeometry x="1092" y="430" width="160" height="60" as="geometry" />
        </mxCell>
        <mxCell id="Kt87ofxyHbjbI0RbkyQz-73" value="Use Case" style="rounded=1;fillColor=#10739E;strokeColor=none;shadow=1;gradientColor=none;fontStyle=1;fontColor=#FFFFFF;fontSize=14;" vertex="1" parent="1">
          <mxGeometry x="1292" y="430" width="160" height="60" as="geometry" />
        </mxCell>
        <mxCell id="Kt87ofxyHbjbI0RbkyQz-74" value="State Machine" style="rounded=1;fillColor=#10739E;strokeColor=none;shadow=1;gradientColor=none;fontStyle=1;fontColor=#FFFFFF;fontSize=14;" vertex="1" parent="1">
          <mxGeometry x="1492" y="430" width="160" height="60" as="geometry" />
        </mxCell>
        <mxCell id="Kt87ofxyHbjbI0RbkyQz-75" value="Diagramy interakce" style="rounded=1;fillColor=#10739E;strokeColor=none;shadow=1;gradientColor=none;fontStyle=1;fontColor=#FFFFFF;fontSize=14;" vertex="1" parent="1">
          <mxGeometry x="962" y="520" width="200" height="60" as="geometry" />
        </mxCell>
        <mxCell id="Kt87ofxyHbjbI0RbkyQz-76" value="" style="edgeStyle=elbowEdgeStyle;elbow=vertical;strokeWidth=4;endArrow=none;endFill=0;fontStyle=1;strokeColor=#23445D;startArrow=block;startFill=1;exitX=0.5;exitY=1;exitDx=0;exitDy=0;entryX=0.5;entryY=0;entryDx=0;entryDy=0;rounded=0;jumpStyle=none;jumpSize=0;" edge="1" parent="1" source="6" target="Kt87ofxyHbjbI0RbkyQz-72">
          <mxGeometry x="22" y="165.5" width="100" height="100" as="geometry">
            <mxPoint x="492" y="380" as="sourcePoint" />
            <mxPoint x="792" y="440" as="targetPoint" />
            <Array as="points">
              <mxPoint x="1252" y="400" />
            </Array>
          </mxGeometry>
        </mxCell>
        <mxCell id="Kt87ofxyHbjbI0RbkyQz-77" value="" style="edgeStyle=elbowEdgeStyle;elbow=vertical;strokeWidth=4;endArrow=none;endFill=0;fontStyle=1;strokeColor=#23445D;startArrow=block;startFill=1;rounded=0;jumpStyle=none;jumpSize=0;entryX=0.5;entryY=0;entryDx=0;entryDy=0;" edge="1" parent="1" target="Kt87ofxyHbjbI0RbkyQz-73">
          <mxGeometry x="22" y="165.5" width="100" height="100" as="geometry">
            <mxPoint x="1272" y="370" as="sourcePoint" />
            <mxPoint x="1182" y="440" as="targetPoint" />
            <Array as="points">
              <mxPoint x="1322" y="400" />
            </Array>
          </mxGeometry>
        </mxCell>
        <mxCell id="Kt87ofxyHbjbI0RbkyQz-78" value="" style="edgeStyle=elbowEdgeStyle;elbow=vertical;strokeWidth=4;endArrow=none;endFill=0;fontStyle=1;strokeColor=#23445D;startArrow=block;startFill=1;rounded=0;jumpStyle=none;jumpSize=0;exitX=0.5;exitY=1;exitDx=0;exitDy=0;" edge="1" parent="1" source="6" target="Kt87ofxyHbjbI0RbkyQz-74">
          <mxGeometry x="22" y="165.5" width="100" height="100" as="geometry">
            <mxPoint x="1282" y="380" as="sourcePoint" />
            <mxPoint x="1382" y="440" as="targetPoint" />
            <Array as="points">
              <mxPoint x="1422" y="400" />
            </Array>
          </mxGeometry>
        </mxCell>
        <mxCell id="Kt87ofxyHbjbI0RbkyQz-79" value="" style="edgeStyle=elbowEdgeStyle;elbow=vertical;strokeWidth=4;endArrow=none;endFill=0;fontStyle=1;strokeColor=#23445D;startArrow=block;startFill=1;rounded=0;jumpStyle=none;jumpSize=0;exitX=0.5;exitY=1;exitDx=0;exitDy=0;entryX=0.5;entryY=0;entryDx=0;entryDy=0;" edge="1" parent="1" source="6" target="Kt87ofxyHbjbI0RbkyQz-75">
          <mxGeometry x="22" y="165.5" width="100" height="100" as="geometry">
            <mxPoint x="1282" y="380" as="sourcePoint" />
            <mxPoint x="1582" y="440" as="targetPoint" />
            <Array as="points">
              <mxPoint x="1062" y="400" />
            </Array>
          </mxGeometry>
        </mxCell>
        <mxCell id="Kt87ofxyHbjbI0RbkyQz-80" value="Sequence" style="rounded=1;fillColor=#10739E;strokeColor=none;shadow=1;gradientColor=none;fontStyle=1;fontColor=#FFFFFF;fontSize=14;" vertex="1" parent="1">
          <mxGeometry x="892" y="650" width="160" height="60" as="geometry" />
        </mxCell>
        <mxCell id="Kt87ofxyHbjbI0RbkyQz-81" value="Communication" style="rounded=1;fillColor=#10739E;strokeColor=none;shadow=1;gradientColor=none;fontStyle=1;fontColor=#FFFFFF;fontSize=14;" vertex="1" parent="1">
          <mxGeometry x="1092" y="650" width="160" height="60" as="geometry" />
        </mxCell>
        <mxCell id="Kt87ofxyHbjbI0RbkyQz-82" value="Interaction&#xa;Overview" style="rounded=1;fillColor=#10739E;strokeColor=none;shadow=1;gradientColor=none;fontStyle=1;fontColor=#FFFFFF;fontSize=14;" vertex="1" parent="1">
          <mxGeometry x="1292" y="650" width="160" height="60" as="geometry" />
        </mxCell>
        <mxCell id="Kt87ofxyHbjbI0RbkyQz-83" value="Timing" style="rounded=1;fillColor=#10739E;strokeColor=none;shadow=1;gradientColor=none;fontStyle=1;fontColor=#FFFFFF;fontSize=14;" vertex="1" parent="1">
          <mxGeometry x="1492" y="650" width="160" height="60" as="geometry" />
        </mxCell>
        <mxCell id="Kt87ofxyHbjbI0RbkyQz-84" value="" style="edgeStyle=elbowEdgeStyle;elbow=vertical;strokeWidth=4;endArrow=none;endFill=0;fontStyle=1;strokeColor=#23445D;startArrow=block;startFill=1;rounded=0;jumpStyle=none;jumpSize=0;exitX=0.5;exitY=1;exitDx=0;exitDy=0;entryX=0.5;entryY=0;entryDx=0;entryDy=0;" edge="1" parent="1" source="Kt87ofxyHbjbI0RbkyQz-75" target="Kt87ofxyHbjbI0RbkyQz-80">
          <mxGeometry x="22" y="165.5" width="100" height="100" as="geometry">
            <mxPoint x="1282" y="380" as="sourcePoint" />
            <mxPoint x="1072" y="530" as="targetPoint" />
            <Array as="points">
              <mxPoint x="1022" y="610" />
            </Array>
          </mxGeometry>
        </mxCell>
        <mxCell id="Kt87ofxyHbjbI0RbkyQz-85" value="" style="edgeStyle=elbowEdgeStyle;elbow=vertical;strokeWidth=4;endArrow=none;endFill=0;fontStyle=1;strokeColor=#23445D;startArrow=block;startFill=1;rounded=0;jumpStyle=none;jumpSize=0;exitX=0.5;exitY=1;exitDx=0;exitDy=0;entryX=0.5;entryY=0;entryDx=0;entryDy=0;" edge="1" parent="1" source="Kt87ofxyHbjbI0RbkyQz-75" target="Kt87ofxyHbjbI0RbkyQz-81">
          <mxGeometry x="22" y="165.5" width="100" height="100" as="geometry">
            <mxPoint x="1072" y="590" as="sourcePoint" />
            <mxPoint x="982" y="650" as="targetPoint" />
            <Array as="points">
              <mxPoint x="1112" y="610" />
            </Array>
          </mxGeometry>
        </mxCell>
        <mxCell id="Kt87ofxyHbjbI0RbkyQz-86" value="" style="edgeStyle=elbowEdgeStyle;elbow=vertical;strokeWidth=4;endArrow=none;endFill=0;fontStyle=1;strokeColor=#23445D;startArrow=block;startFill=1;rounded=0;jumpStyle=none;jumpSize=0;exitX=0.5;exitY=1;exitDx=0;exitDy=0;entryX=0.5;entryY=0;entryDx=0;entryDy=0;" edge="1" parent="1" source="Kt87ofxyHbjbI0RbkyQz-75" target="Kt87ofxyHbjbI0RbkyQz-82">
          <mxGeometry x="22" y="165.5" width="100" height="100" as="geometry">
            <mxPoint x="1082" y="600" as="sourcePoint" />
            <mxPoint x="992" y="660" as="targetPoint" />
            <Array as="points">
              <mxPoint x="1212" y="610" />
            </Array>
          </mxGeometry>
        </mxCell>
        <mxCell id="Kt87ofxyHbjbI0RbkyQz-87" value="" style="edgeStyle=elbowEdgeStyle;elbow=vertical;strokeWidth=4;endArrow=none;endFill=0;fontStyle=1;strokeColor=#23445D;startArrow=block;startFill=1;rounded=0;jumpStyle=none;jumpSize=0;exitX=0.5;exitY=1;exitDx=0;exitDy=0;entryX=0.5;entryY=0;entryDx=0;entryDy=0;" edge="1" parent="1" source="Kt87ofxyHbjbI0RbkyQz-75" target="Kt87ofxyHbjbI0RbkyQz-83">
          <mxGeometry x="22" y="165.5" width="100" height="100" as="geometry">
            <mxPoint x="1092" y="610" as="sourcePoint" />
            <mxPoint x="1002" y="670" as="targetPoint" />
            <Array as="points">
              <mxPoint x="1062" y="610" />
            </Array>
          </mxGeometry>
        </mxCell>
      </root>
    </mxGraphModel>
  </diagram>
</mxfile>
